Sprint_08100001_forces_filt15Hz.mot
version=1
nRows=52
nColumns=19
inDegrees=yes
endheader
time	R_ground_force_vx	R_ground_force_vy	R_ground_force_vz	R_ground_force_px	R_ground_force_py	R_ground_force_pz	R_ground_torque_x	R_ground_torque_y	R_ground_torque_z	L_ground_force_vx	L_ground_force_vy	L_ground_force_vz	L_ground_force_px	L_ground_force_py	L_ground_force_pz	L_ground_torque_x	L_ground_torque_y	L_ground_torque_z	
2.927000	  0.000000	  0.000000	  0.000000	  0.202139	  0.000000	 -0.207233	  0.000000	  0.000000	  0.000000	-157.370209	344.416020	 48.064165	  0.952285	  0.000000	 -0.414405	  0.000000	  1.516692	  0.000000
2.927500	  0.000000	  0.000000	  0.000000	  0.204590	  0.000000	 -0.206977	  0.000000	  0.000000	  0.000000	-164.936533	369.683793	 52.144844	  0.951446	  0.000000	 -0.411721	  0.000000	  1.737763	  0.000000
2.928000	  0.000000	  0.000000	  0.000000	  0.207041	  0.000000	 -0.206721	  0.000000	  0.000000	  0.000000	-172.642200	395.843537	 56.340104	  0.950670	  0.000000	 -0.409212	  0.000000	  1.941283	  0.000000
2.928500	  0.000000	  0.000000	  0.000000	  0.209492	  0.000000	 -0.206465	  0.000000	  0.000000	  0.000000	-180.474521	422.896647	 60.649480	  0.949946	  0.000000	 -0.406857	  0.000000	  2.126652	  0.000000
2.929000	  0.000000	  0.000000	  0.000000	  0.211942	  0.000000	 -0.206209	  0.000000	  0.000000	  0.000000	-188.419780	450.842561	 65.072459	  0.949265	  0.000000	 -0.404637	  0.000000	  2.293111	  0.000000
2.929500	  0.000000	  0.000000	  0.000000	  0.214393	  0.000000	 -0.205953	  0.000000	  0.000000	  0.000000	-196.463234	479.678629	 69.608422	  0.948619	  0.000000	 -0.402534	  0.000000	  2.439797	  0.000000
2.930000	  0.000000	  0.000000	  0.000000	  0.216844	  0.000000	 -0.205697	  0.000000	  0.000000	  0.000000	-204.589120	509.399974	 74.256571	  0.948000	  0.000000	 -0.400535	  0.000000	  2.565777	  0.000000
2.930500	  0.000000	  0.000000	  0.000000	  0.219009	  0.000000	 -0.205589	  0.000000	  0.000000	  0.000000	-212.780665	539.999348	 79.015836	  0.947404	  0.000000	 -0.398627	  0.000000	  2.670086	  0.000000
2.931000	  0.000000	  0.000000	  0.000000	  0.221174	  0.000000	 -0.205481	  0.000000	  0.000000	  0.000000	-221.020111	571.466989	 83.884772	  0.946825	  0.000000	 -0.396798	  0.000000	  2.751743	  0.000000
2.931500	  0.000000	  0.000000	  0.000000	  0.223339	  0.000000	 -0.205373	  0.000000	  0.000000	  0.000000	-229.288760	603.790465	 88.861440	  0.946260	  0.000000	 -0.395041	  0.000000	  2.809757	  0.000000
2.932000	  0.000000	  0.000000	  0.000000	  0.225504	  0.000000	 -0.205264	  0.000000	  0.000000	  0.000000	-237.567048	636.954526	 93.943285	  0.945706	  0.000000	 -0.393346	  0.000000	  2.843124	  0.000000
2.932500	  0.000000	  0.000000	  0.000000	  0.227669	  0.000000	 -0.205156	  0.000000	  0.000000	  0.000000	-245.834644	670.940937	 99.127019	  0.945159	  0.000000	 -0.391707	  0.000000	  2.850809	  0.000000
2.933000	  0.000000	  0.000000	  0.000000	  0.229834	  0.000000	 -0.205048	  0.000000	  0.000000	  0.000000	-254.070572	705.728318	104.408507	  0.944617	  0.000000	 -0.390117	  0.000000	  2.831728	  0.000000
2.933500	  0.000000	  0.000000	  0.000000	  0.231999	  0.000000	 -0.204939	  0.000000	  0.000000	  0.000000	-262.253359	741.292107	109.782682	  0.944078	  0.000000	 -0.388571	  0.000000	  2.784734	  0.000000
2.934000	  0.000000	  0.000000	  0.000000	  0.234164	  0.000000	 -0.204831	  0.000000	  0.000000	  0.000000	-270.361193	777.604910	115.243463	  0.943542	  0.000000	 -0.387065	  0.000000	  2.708615	  0.000000
2.934500	  0.000000	  0.000000	  0.000000	  0.236329	  0.000000	 -0.204723	  0.000000	  0.000000	  0.000000	-278.372086	814.637185	120.783687	  0.943006	  0.000000	 -0.385595	  0.000000	  2.602102	  0.000000
2.935000	  0.000000	  0.000000	  0.000000	  0.238494	  0.000000	 -0.204615	  0.000000	  0.000000	  0.000000	-286.264049	852.357895	126.395045	  0.942470	  0.000000	 -0.384158	  0.000000	  2.463881	  0.000000
2.935500	  0.000000	  0.000000	  0.000000	  0.240830	  0.000000	 -0.204442	  0.000000	  0.000000	  0.000000	-294.015265	890.735003	132.068014	  0.941933	  0.000000	 -0.382750	  0.000000	  2.292597	  0.000000
2.936000	  0.000000	  0.000000	  0.000000	  0.243167	  0.000000	 -0.204270	  0.000000	  0.000000	  0.000000	-301.604253	929.735941	137.791768	  0.941394	  0.000000	 -0.381370	  0.000000	  2.086836	  0.000000
2.936500	  0.000000	  0.000000	  0.000000	  0.245503	  0.000000	 -0.204097	  0.000000	  0.000000	  0.000000	-309.010036	969.328095	143.554084	  0.940853	  0.000000	 -0.380015	  0.000000	  1.845100	  0.000000
2.937000	  0.000000	  0.000000	  0.000000	  0.247839	  0.000000	 -0.203925	  0.000000	  0.000000	  0.000000	-316.212298	1009.479215	149.341242	  0.940310	  0.000000	 -0.378684	  0.000000	  1.565760	  0.000000
2.937500	  0.000000	  0.000000	  0.000000	  0.250176	  0.000000	 -0.203753	  0.000000	  0.000000	  0.000000	-323.191553	1050.157731	155.137940	  0.939765	  0.000000	 -0.377375	  0.000000	  1.247009	  0.000000
2.938000	  0.000000	  0.000000	  0.000000	  0.252512	  0.000000	 -0.203580	  0.000000	  0.000000	  0.000000	-329.929329	1091.332936	160.927251	  0.939216	  0.000000	 -0.376087	  0.000000	  0.886831	  0.000000
2.938500	  0.000000	  0.000000	  0.000000	  0.254848	  0.000000	 -0.203408	  0.000000	  0.000000	  0.000000	-336.408381	1132.975035	166.690637	  0.938663	  0.000000	 -0.374819	  0.000000	  0.482971	  0.000000
2.939000	  0.000000	  0.000000	  0.000000	  0.257184	  0.000000	 -0.203235	  0.000000	  0.000000	  0.000000	-342.612933	1175.055108	172.408033	  0.938106	  0.000000	 -0.373572	  0.000000	  0.032926	  0.000000
2.939500	  0.000000	  0.000000	  0.000000	  0.259521	  0.000000	 -0.203063	  0.000000	  0.000000	  0.000000	-348.528952	1217.545024	178.057993	  0.937543	  0.000000	 -0.372345	  0.000000	 -0.466046	  0.000000
2.940000	  0.000000	  0.000000	  0.000000	  0.261857	  0.000000	 -0.202890	  0.000000	  0.000000	  0.000000	-354.144450	1260.417350	183.617874	  0.936973	  0.000000	 -0.371137	  0.000000	 -1.016917	  0.000000
2.940500	  0.000000	  0.000000	  0.000000	  0.264392	  0.000000	 -0.202637	  0.000000	  0.000000	  0.000000	-359.449779	1303.645283	189.064054	  0.936396	  0.000000	 -0.369950	  0.000000	 -1.622857	  0.000000
2.941000	  0.000000	  0.000000	  0.000000	  0.266927	  0.000000	 -0.202384	  0.000000	  0.000000	  0.000000	-364.437924	1347.202617	194.372139	  0.935810	  0.000000	 -0.368783	  0.000000	 -2.287191	  0.000000
2.941500	  0.000000	  0.000000	  0.000000	  0.269462	  0.000000	 -0.202131	  0.000000	  0.000000	  0.000000	-369.104756	1391.063709	199.517153	  0.935214	  0.000000	 -0.367638	  0.000000	 -3.013327	  0.000000
2.942000	  0.000000	  0.000000	  0.000000	  0.271996	  0.000000	 -0.201878	  0.000000	  0.000000	  0.000000	-373.449250	1435.203464	204.473714	  0.934604	  0.000000	 -0.366513	  0.000000	 -3.804662	  0.000000
2.942500	  0.000000	  0.000000	  0.000000	  0.274531	  0.000000	 -0.201625	  0.000000	  0.000000	  0.000000	-377.473620	1479.597271	209.216182	  0.933979	  0.000000	 -0.365410	  0.000000	 -4.664454	  0.000000
2.943000	  0.000000	  0.000000	  0.000000	  0.277066	  0.000000	 -0.201371	  0.000000	  0.000000	  0.000000	-381.183380	1524.220910	213.718826	  0.933335	  0.000000	 -0.364329	  0.000000	 -5.595670	  0.000000
2.943500	  0.000000	  0.000000	  0.000000	  0.279601	  0.000000	 -0.201118	  0.000000	  0.000000	  0.000000	-384.587299	1569.050368	217.956005	  0.932669	  0.000000	 -0.363269	  0.000000	 -6.600827	  0.000000
2.944000	  0.000000	  0.000000	  0.000000	  0.282136	  0.000000	 -0.200865	  0.000000	  0.000000	  0.000000	-387.697266	1614.061572	221.902378	  0.931976	  0.000000	 -0.362232	  0.000000	 -7.681840	  0.000000
2.944500	  0.000000	  0.000000	  0.000000	  0.284671	  0.000000	 -0.200612	  0.000000	  0.000000	  0.000000	-390.528064	1659.230016	225.533122	  0.931253	  0.000000	 -0.361216	  0.000000	 -8.839886	  0.000000
2.945000	  0.000000	  0.000000	  0.000000	  0.287206	  0.000000	 -0.200359	  0.000000	  0.000000	  0.000000	-393.097068	1704.530320	228.824154	  0.930495	  0.000000	 -0.360222	  0.000000	-10.075306	  0.000000
2.945500	  0.000000	  0.000000	  0.000000	  0.289814	  0.000000	 -0.200077	  0.000000	  0.000000	  0.000000	-395.423869	1749.935761	231.752297	  0.929699	  0.000000	 -0.359249	  0.000000	-11.387545	  0.000000
2.946000	  0.000000	  0.000000	  0.000000	  0.292423	  0.000000	 -0.199796	  0.000000	  0.000000	  0.000000	-397.529817	1795.417845	234.295406	  0.928860	  0.000000	 -0.358296	  0.000000	-12.775130	  0.000000
2.946500	  0.000000	  0.000000	  0.000000	  0.295031	  0.000000	 -0.199514	  0.000000	  0.000000	  0.000000	-399.437490	1840.945976	236.432419	  0.927977	  0.000000	 -0.357364	  0.000000	-14.235676	  0.000000
2.947000	  0.000000	  0.000000	  0.000000	  0.297640	  0.000000	 -0.199232	  0.000000	  0.000000	  0.000000	-401.170083	1886.487244	238.143341	  0.927045	  0.000000	 -0.356451	  0.000000	-15.765891	  0.000000
2.947500	  0.000000	  0.000000	  0.000000	  0.300248	  0.000000	 -0.198951	  0.000000	  0.000000	  0.000000	-402.750740	1932.006335	239.409176	  0.926063	  0.000000	 -0.355557	  0.000000	-17.361588	  0.000000
2.948000	  0.000000	  0.000000	  0.000000	  0.302856	  0.000000	 -0.198669	  0.000000	  0.000000	  0.000000	-404.201857	1977.465534	240.211831	  0.925030	  0.000000	 -0.354681	  0.000000	-19.017673	  0.000000
2.948500	  0.000000	  0.000000	  0.000000	  0.305465	  0.000000	 -0.198387	  0.000000	  0.000000	  0.000000	-405.544396	2022.824770	240.534028	  0.923945	  0.000000	 -0.353824	  0.000000	-20.728115	  0.000000
2.949000	  0.000000	  0.000000	  0.000000	  0.308073	  0.000000	 -0.198106	  0.000000	  0.000000	  0.000000	-406.797266	2068.041710	240.359250	  0.922808	  0.000000	 -0.352985	  0.000000	-22.485933	  0.000000
2.949500	  0.000000	  0.000000	  0.000000	  0.310682	  0.000000	 -0.197824	  0.000000	  0.000000	  0.000000	-407.976804	2113.071853	239.671752	  0.921621	  0.000000	 -0.352164	  0.000000	-24.283185	  0.000000
2.950000	  0.000000	  0.000000	  0.000000	  0.313290	  0.000000	 -0.197542	  0.000000	  0.000000	  0.000000	-409.096412	2157.868682	238.456658	  0.920384	  0.000000	 -0.351361	  0.000000	-26.111007	  0.000000
2.950500	  0.000000	  0.000000	  0.000000	  0.315847	  0.000000	 -0.197284	  0.000000	  0.000000	  0.000000	-410.166338	2202.383830	236.700114	  0.919101	  0.000000	 -0.350577	  0.000000	-27.959707	  0.000000
2.951000	  0.000000	  0.000000	  0.000000	  0.318404	  0.000000	 -0.197027	  0.000000	  0.000000	  0.000000	-411.193616	2246.567255	234.389503	  0.917776	  0.000000	 -0.349811	  0.000000	-29.818883	  0.000000
2.951500	  0.000000	  0.000000	  0.000000	  0.320961	  0.000000	 -0.196769	  0.000000	  0.000000	  0.000000	-412.182118	2290.367414	231.513666	  0.916412	  0.000000	 -0.349064	  0.000000	-31.677580	  0.000000
2.952000	  0.000000	  0.000000	  0.000000	  0.323518	  0.000000	 -0.196511	  0.000000	  0.000000	  0.000000	-413.132711	2333.731444	228.063130	  0.915015	  0.000000	 -0.348336	  0.000000	-33.524440	  0.000000
2.952500	  0.000000	  0.000000	  0.000000	  0.326075	  0.000000	 -0.196253	  0.000000	  0.000000	  0.000000	-414.043494	2376.605392	224.030306	  0.913591	  0.000000	 -0.347627	  0.000000	-35.347840	  0.000000
